<svg width="28" height="28" viewBox="0 0 28 28" fill="none" xmlns="http://www.w3.org/2000/svg">
<rect width="28" height="28" rx="14" fill="#FCEEEE"/>
<path d="M17.3333 20.6666H10.6667C10.313 20.6666 9.97391 20.5262 9.72386 20.2761C9.47381 20.0261 9.33333 19.6869 9.33333 19.3333V10.6666H8V9.33331H10.6667V8.66665C10.6667 8.31302 10.8071 7.97389 11.0572 7.72384C11.3072 7.47379 11.6464 7.33331 12 7.33331H16C16.3536 7.33331 16.6928 7.47379 16.9428 7.72384C17.1929 7.97389 17.3333 8.31302 17.3333 8.66665V9.33331H20V10.6666H18.6667V19.3333C18.6667 19.6869 18.5262 20.0261 18.2761 20.2761C18.0261 20.5262 17.687 20.6666 17.3333 20.6666ZM10.6667 10.6666V19.3333H17.3333V10.6666H10.6667ZM12 8.66665V9.33331H16V8.66665H12Z" fill="#E62F2F"/>
</svg>
