<svg width="16" height="17" viewBox="0 0 16 17" fill="none" xmlns="http://www.w3.org/2000/svg">
<path d="M13 4H12V3.5C11.9997 3.23486 11.8943 2.98066 11.7068 2.79319C11.5193 2.60571 11.2651 2.50026 11 2.5H5C4.73486 2.50026 4.48066 2.60571 4.29319 2.79319C4.10571 2.98066 4.00026 3.23486 4 3.5V4H3C2.73486 4.00026 2.48066 4.10571 2.29319 4.29319C2.10571 4.48066 2.00026 4.73486 2 5V6.5C2.00066 7.03023 2.21159 7.53855 2.58652 7.91348C2.96145 8.28841 3.46977 8.49934 4 8.5H4.161C4.36935 9.26536 4.79605 9.95349 5.38899 10.4804C5.98193 11.0072 6.71546 11.3501 7.5 11.467V13.5H5V14.5H11V13.5H8.5V11.4655C9.29473 11.3673 10.0414 11.0317 10.6426 10.5027C11.2437 9.97372 11.6715 9.27578 11.87 8.5H12C12.5302 8.49934 13.0386 8.28841 13.4135 7.91348C13.7884 7.53855 13.9993 7.03023 14 6.5V5C13.9997 4.73486 13.8943 4.48066 13.7068 4.29319C13.5193 4.10571 13.2651 4.00026 13 4ZM4 7.5C3.73486 7.49974 3.48066 7.39429 3.29319 7.20681C3.10571 7.01934 3.00026 6.76514 3 6.5V5H4V7.5ZM13 6.5C12.9997 6.76514 12.8943 7.01934 12.7068 7.20681C12.5193 7.39429 12.2651 7.49974 12 7.5V5H13V6.5Z" fill="#374572"/>
</svg>
