<svg width="23" height="22" viewBox="0 0 23 22" fill="none" xmlns="http://www.w3.org/2000/svg">
<path d="M20.0386 16.5859H18.2537C18.1318 16.5859 18.0176 16.6393 17.9414 16.7332C17.7636 16.949 17.5732 17.1572 17.3726 17.3553C16.5522 18.1765 15.5805 18.8309 14.5111 19.2824C13.4032 19.7504 12.2124 19.9904 11.0097 19.9883C9.79353 19.9883 8.61541 19.7496 7.50838 19.2824C6.439 18.8309 5.46724 18.1765 4.64685 17.3553C3.825 16.5368 3.16967 15.5668 2.71717 14.4988C2.24744 13.3918 2.01131 12.2162 2.01131 11C2.01131 9.78378 2.24998 8.6082 2.71717 7.50117C3.16912 6.43222 3.81912 5.46992 4.64685 4.64472C5.47459 3.81952 6.43689 3.16952 7.50838 2.71757C8.61541 2.25038 9.79353 2.01171 11.0097 2.01171C12.226 2.01171 13.4041 2.24784 14.5111 2.71757C15.5826 3.16952 16.5449 3.81952 17.3726 4.64472C17.5732 4.84531 17.7611 5.05351 17.9414 5.26679C18.0176 5.36074 18.1344 5.41406 18.2537 5.41406H20.0386C20.1986 5.41406 20.2976 5.23632 20.2088 5.10175C18.2613 2.07519 14.8539 0.0718677 10.9818 0.0820239C4.89822 0.0972583 0.020682 5.03574 0.0816195 11.1117C0.142557 17.0912 5.01248 21.918 11.0097 21.918C14.8717 21.918 18.2638 19.9172 20.2088 16.8982C20.2951 16.7637 20.1986 16.5859 20.0386 16.5859ZM22.2959 10.84L18.6929 7.99628C18.5584 7.88964 18.3629 7.98613 18.3629 8.15624V10.0859H10.3902C10.2785 10.0859 10.1871 10.1773 10.1871 10.2891V11.7109C10.1871 11.8226 10.2785 11.9141 10.3902 11.9141H18.3629V13.8437C18.3629 14.0139 18.5609 14.1103 18.6929 14.0037L22.2959 11.16C22.3202 11.141 22.3398 11.1167 22.3533 11.089C22.3668 11.0612 22.3738 11.0308 22.3738 11C22.3738 10.9692 22.3668 10.9387 22.3533 10.911C22.3398 10.8833 22.3202 10.859 22.2959 10.84Z" fill="#374572"/>
</svg>
