<svg width="11" height="15" viewBox="0 0 11 15" fill="none" xmlns="http://www.w3.org/2000/svg">
<path d="M10.8334 7.49999C10.8334 6.76466 10.2354 6.16666 9.50008 6.16666H8.83341V4.16666C8.83341 2.32866 7.33808 0.833328 5.50008 0.833328C3.66208 0.833328 2.16675 2.32866 2.16675 4.16666V6.16666H1.50008C0.764748 6.16666 0.166748 6.76466 0.166748 7.49999V12.8333C0.166748 13.5687 0.764748 14.1667 1.50008 14.1667H9.50008C10.2354 14.1667 10.8334 13.5687 10.8334 12.8333V7.49999ZM3.50008 4.16666C3.50008 3.06399 4.39741 2.16666 5.50008 2.16666C6.60275 2.16666 7.50008 3.06399 7.50008 4.16666V6.16666H3.50008V4.16666Z" fill="#374572"/>
</svg>
