<svg width="17" height="17" viewBox="0 0 17 17" fill="none" xmlns="http://www.w3.org/2000/svg">
<g clip-path="url(#clip0_333_2111)">
<path d="M11.6457 13.668L11.2191 10.252C11.1586 9.76815 10.9235 9.32305 10.5578 9.00041C10.1922 8.67777 9.72135 8.49981 9.23373 8.5H7.7644C7.27701 8.50014 6.80645 8.67824 6.44112 9.00085C6.07579 9.32346 5.84083 9.76838 5.7804 10.252L5.35306 13.668C5.32961 13.8557 5.34635 14.0462 5.40218 14.2269C5.45801 14.4076 5.55164 14.5744 5.67687 14.7161C5.80209 14.8579 5.95604 14.9713 6.12848 15.049C6.30093 15.1267 6.48793 15.1668 6.67706 15.1667H10.3224C10.5115 15.1667 10.6984 15.1265 10.8708 15.0488C11.0431 14.9711 11.197 14.8576 11.3221 14.7159C11.4473 14.5741 11.5409 14.4074 11.5967 14.2267C11.6524 14.0461 11.6692 13.8556 11.6457 13.668V13.668Z" stroke="#374572" stroke-width="1.4" stroke-linecap="round" stroke-linejoin="round"/>
<path d="M8.5 5.83337C9.60457 5.83337 10.5 4.93794 10.5 3.83337C10.5 2.7288 9.60457 1.83337 8.5 1.83337C7.39543 1.83337 6.5 2.7288 6.5 3.83337C6.5 4.93794 7.39543 5.83337 8.5 5.83337Z" stroke="#374572" stroke-width="1.4"/>
<path d="M3.16634 7.83341C3.90272 7.83341 4.49967 7.23646 4.49967 6.50008C4.49967 5.7637 3.90272 5.16675 3.16634 5.16675C2.42996 5.16675 1.83301 5.7637 1.83301 6.50008C1.83301 7.23646 2.42996 7.83341 3.16634 7.83341Z" stroke="#374572" stroke-width="1.4"/>
<path d="M13.8333 7.83341C14.5697 7.83341 15.1667 7.23646 15.1667 6.50008C15.1667 5.7637 14.5697 5.16675 13.8333 5.16675C13.097 5.16675 12.5 5.7637 12.5 6.50008C12.5 7.23646 13.097 7.83341 13.8333 7.83341Z" stroke="#374572" stroke-width="1.4"/>
<path d="M13.8334 9.83337H14.0374C14.353 9.83334 14.6584 9.94526 14.8993 10.1493C15.1401 10.3532 15.3008 10.636 15.3527 10.9474L15.5747 12.2807C15.6066 12.4717 15.5964 12.6674 15.545 12.8541C15.4936 13.0408 15.4021 13.2141 15.2769 13.3619C15.1517 13.5097 14.9958 13.6284 14.8201 13.7098C14.6444 13.7912 14.4531 13.8334 14.2594 13.8334H11.8334M3.16672 9.83337H2.96272C2.6471 9.83334 2.34169 9.94526 2.10084 10.1493C1.85999 10.3532 1.69931 10.636 1.64739 10.9474L1.42539 12.2807C1.39353 12.4717 1.40367 12.6674 1.4551 12.8541C1.50654 13.0408 1.59802 13.2141 1.72321 13.3619C1.84839 13.5097 2.00427 13.6284 2.17999 13.7098C2.35571 13.7912 2.54706 13.8334 2.74072 13.8334H5.16672L3.16672 9.83337Z" stroke="#374572" stroke-width="1.4" stroke-linecap="round" stroke-linejoin="round"/>
</g>
<defs>
<clipPath id="clip0_333_2111">
<rect width="16" height="16" fill="white" transform="translate(0.5 0.5)"/>
</clipPath>
</defs>
</svg>
