<svg width="18" height="18" viewBox="0 0 18 18" fill="none" xmlns="http://www.w3.org/2000/svg">
<path d="M13.2098 11.637C14.2991 10.1505 14.787 8.30755 14.5759 6.47679C14.3647 4.64603 13.4701 2.96251 12.071 1.76302C10.6719 0.563536 8.8715 -0.0634459 7.02997 0.00751135C5.18845 0.0784686 3.44162 0.842132 2.13896 2.14572C0.836304 3.44931 0.0738903 5.19669 0.00425079 7.03826C-0.0653888 8.87984 0.562881 10.6798 1.76337 12.0781C2.96385 13.4763 4.64802 14.3697 6.47893 14.5795C8.30984 14.7894 10.1525 14.3001 11.6382 13.2097H11.637C11.6708 13.2547 11.7068 13.2975 11.7473 13.3391L16.0785 17.6704C16.2895 17.8815 16.5756 18.0001 16.8741 18.0002C17.1725 18.0003 17.4587 17.8819 17.6698 17.6709C17.8809 17.46 17.9996 17.1738 17.9997 16.8754C17.9998 16.577 17.8814 16.2907 17.6704 16.0796L13.3392 11.7484C13.2989 11.7077 13.2557 11.6701 13.2098 11.6359V11.637ZM13.5 7.3125C13.5 8.12505 13.34 8.92965 13.029 9.68035C12.7181 10.4311 12.2623 11.1132 11.6878 11.6877C11.1132 12.2623 10.4311 12.7181 9.68039 13.029C8.92968 13.34 8.12509 13.5 7.31253 13.5C6.49998 13.5 5.69538 13.34 4.94468 13.029C4.19398 12.7181 3.51187 12.2623 2.93731 11.6877C2.36275 11.1132 1.90698 10.4311 1.59603 9.68035C1.28508 8.92965 1.12503 8.12505 1.12503 7.3125C1.12503 5.67147 1.77693 4.09766 2.93731 2.93728C4.09769 1.7769 5.67151 1.125 7.31253 1.125C8.95356 1.125 10.5274 1.7769 11.6878 2.93728C12.8481 4.09766 13.5 5.67147 13.5 7.3125Z" fill="#757575"/>
</svg>
